<svg width="295" height="202" viewBox="0 0 295 202" fill="none" xmlns="http://www.w3.org/2000/svg">
<path d="M210.796 183.674L70.7333 56.622L92.6354 14L246.635 182.631L210.796 183.674Z" fill="#F2F2F2"/>
<ellipse cx="147" cy="41.4805" rx="8.47407" ry="8.46903" fill="#F2F2F2"/>
<ellipse cx="184.235" cy="58.9319" rx="2.82469" ry="2.82301" fill="#3F3D56"/>
<ellipse cx="184.235" cy="81.2593" rx="2.82469" ry="2.82301" fill="#3F3D56"/>
<ellipse cx="212.481" cy="86.9053" rx="2.82469" ry="2.82301" fill="#3F3D56"/>
<ellipse cx="147" cy="182.631" rx="104" ry="5.13274" fill="#F2F2F2"/>
<path d="M207.838 99.2639C206.658 97.3195 202.538 97.3697 202.538 97.3697C198.786 102.94 189.769 97.023 189.769 97.023C183.071 100.018 178.984 90.4744 178.984 90.4744C169.972 89.1276 171.365 79.6683 171.365 79.6683C166.881 78.7686 168.139 70.667 168.139 70.667C168.139 70.667 170.627 68.6277 169.403 67.1359C168.624 66.1874 168.576 63.4654 168.644 61.6072C162.793 59.8289 156.711 58.9273 150.595 58.9319C116.416 58.9319 88.7086 86.6229 88.7086 120.781C88.7086 154.94 116.416 182.631 150.595 182.631C184.774 182.631 212.481 154.94 212.481 120.781C212.489 113.361 211.157 105.999 208.549 99.0508C208.232 99.4091 207.985 99.5076 207.838 99.2639Z" fill="#3F3D56"/>
<path opacity="0.1" d="M207.838 99.2639C206.658 97.3195 202.538 97.3697 202.538 97.3697C198.786 102.94 189.769 97.023 189.769 97.023C183.071 100.018 178.984 90.4744 178.984 90.4744C169.972 89.1276 171.365 79.6683 171.365 79.6683C166.881 78.7686 168.139 70.667 168.139 70.667C168.139 70.667 170.627 68.6277 169.403 67.1359C168.624 66.1874 168.576 63.4654 168.644 61.6072C162.793 59.8289 156.711 58.9273 150.595 58.9319C116.416 58.9319 88.7086 86.6229 88.7086 120.781C88.7086 154.94 116.416 182.631 150.595 182.631C184.774 182.631 212.481 154.94 212.481 120.781C212.489 113.361 211.157 105.999 208.549 99.0508C208.232 99.4091 207.985 99.5076 207.838 99.2639Z" fill="black"/>
<path d="M204.17 99.0196C203.048 97.1704 199.13 97.2181 199.13 97.2181C195.562 102.516 186.986 96.8884 186.986 96.8884C180.616 99.7364 176.729 90.6603 176.729 90.6603C168.158 89.3795 169.482 80.3832 169.482 80.3832C165.218 79.5276 166.415 71.8225 166.415 71.8225C166.415 71.8225 168.781 69.8831 167.617 68.4642C166.876 67.5622 166.83 64.9735 166.895 63.2063C161.33 61.515 155.546 60.6575 149.73 60.6619C117.224 60.6619 90.8726 86.9974 90.8726 119.484C90.8726 151.97 117.224 178.306 149.73 178.306C182.235 178.306 208.587 151.97 208.587 119.484C208.594 112.426 207.327 105.425 204.847 98.8169C204.545 99.1577 204.311 99.2514 204.17 99.0196Z" fill="#3F3D56"/>
<path d="M142.702 95.4352C142.702 95.4352 132.552 88.9802 122.864 95.4352C119.473 97.6944 117.778 100.914 117.006 104.145C115.635 109.889 117.139 115.945 120.807 120.575L142.724 148.244C144.258 150.21 146.781 151.129 149.221 150.61C149.268 150.599 149.316 150.588 149.364 150.576C151.115 150.146 152.609 149.012 153.494 147.442L168.737 120.69C171.557 115.819 172.713 110.162 172.03 104.575C171.315 99.0733 168.672 93.2739 161.156 91.2856C161.156 91.2856 152.39 87.597 142.702 95.4352Z" fill="#FF8A00"/>
<path opacity="0.1" d="M142.702 95.4352C142.702 95.4352 132.552 88.9802 122.864 95.4352C119.473 97.6944 117.778 100.914 117.006 104.145C115.635 109.889 117.139 115.945 120.807 120.575L142.724 148.244C144.258 150.21 146.781 151.129 149.221 150.61C149.268 150.599 149.316 150.588 149.364 150.576C151.115 150.146 152.609 149.012 153.494 147.442L168.737 120.69C171.557 115.819 172.713 110.162 172.03 104.575C171.315 99.0733 168.672 93.2739 161.156 91.2856C161.156 91.2856 152.39 87.597 142.702 95.4352Z" fill="black"/>
<path d="M142.805 96.9931C142.805 96.9931 133.284 90.9379 124.196 96.9931C121.015 99.1125 119.425 102.132 118.701 105.163C117.414 110.552 118.825 116.232 122.266 120.576L142.826 146.531C144.265 148.376 146.631 149.238 148.92 148.751C148.965 148.741 149.01 148.73 149.055 148.719C150.697 148.316 152.099 147.252 152.929 145.779L167.228 120.684C169.873 116.114 170.958 110.808 170.317 105.567C169.646 100.406 167.167 94.9657 160.116 93.1005C160.116 93.1005 151.893 89.6404 142.805 96.9931Z" fill="#FF8A00"/>
<path opacity="0.1" d="M143.176 107.376C143.176 107.376 138.543 104.43 134.122 107.376C132.749 108.304 131.79 109.73 131.448 111.351C130.849 113.984 131.488 116.747 133.183 118.849C133.183 118.849 145.042 132.805 146.151 132.557C146.173 132.552 146.194 132.547 146.216 132.542C147.015 132.35 155.058 118.902 155.058 118.902C156.345 116.679 156.873 114.097 156.561 111.547C156.235 109.036 155.028 106.389 151.598 105.482C151.598 105.482 147.597 103.798 143.176 107.376Z" fill="black"/>
<path opacity="0.1" d="M114.242 129.432L115.541 131.594L118.137 135.919L119.003 138.947L117.272 141.542L119.435 146.732L120.301 149.76L118.57 151.49L122.032 154.085" fill="black"/>
<path opacity="0.1" d="M177.86 110.401V113.861L175.696 119.484L174.397 122.511L176.561 126.404L177.427 128.999L180.889 130.297L182.187 132.459V137.649" fill="black"/>
<path opacity="0.1" d="M199.931 113.861L196.469 116.024C196.469 116.024 194.738 116.889 194.738 117.321V120.781" fill="black"/>
<path opacity="0.1" d="M184.351 101.751L185.217 106.076L184.351 109.104" fill="black"/>
<path opacity="0.1" d="M187.814 140.677L185.217 144.57L182.188 147.165V148.895L183.919 151.057V153.653L182.62 156.248" fill="black"/>
<path opacity="0.1" d="M163.145 67.1497H158.818L155.355 70.1772L149.729 73.2048L147.133 75.3674V76.2326L141.507 79.2601L139.776 82.2877" fill="black"/>
<path opacity="0.1" d="M116.406 74.5022L112.511 82.2875L111.213 85.3151L108.183 89.2077C108.183 89.2077 106.02 93.1003 105.587 93.5328C105.154 93.9653 102.125 94.8304 102.125 94.8304L106.452 99.1555" fill="black"/>
<path opacity="0.1" d="M99.0953 104.346L98.2297 109.968L99.0953 113.429V119.484L96.4987 130.729L99.0953 133.757L102.125 137.649" fill="black"/>
<path opacity="0.1" d="M105.587 106.941L108.183 108.238L109.914 113.861L113.377 112.996L115.108 116.024" fill="black"/>
<path opacity="0.1" d="M153.192 163.168L160.116 162.303L163.145 159.275H167.473" fill="black"/>
<path opacity="0.1" d="M111.213 154.085L113.809 157.113L118.137 158.41L121.167 159.275L122.032 164.033" fill="black"/>
<path opacity="0.1" d="M162.28 139.379L165.309 137.217L166.608 133.757L169.204 133.324L170.502 128.999" fill="black"/>
<path d="M84.5583 30.7017H91.8044C96.5685 30.7017 100.431 34.5614 100.431 39.3227V55.1856H75.9321V39.3227C75.9321 37.0363 76.841 34.8435 78.4587 33.2267C80.0764 31.6099 82.2705 30.7017 84.5583 30.7017Z" fill="#2F2E41"/>
<path d="M91.9976 166.74C91.9976 166.74 91.2272 171.616 89.9433 172.386C88.6593 173.156 96.6198 174.953 96.6198 174.953L97.9037 167.254L91.9976 166.74Z" fill="#FBBEBE"/>
<path d="M101.499 111.05L104.324 114.386L103.04 125.935L102.012 148.776C102.012 148.776 104.067 168.537 102.012 169.05C99.9581 169.563 90.7137 169.307 90.9704 168.023C91.2272 166.74 91.484 165.714 91.9976 163.917C92.5112 162.121 91.484 155.705 91.484 155.705L92.768 148.519L88.1458 117.466L101.499 111.05Z" fill="#2F2E41"/>
<path d="M92.2544 171.616C92.2544 171.616 89.4297 171.103 89.173 171.616C88.9162 172.13 84.0371 177.519 83.2668 177.519C82.4964 177.519 76.847 182.652 82.7532 182.908C88.6594 183.165 98.4174 178.546 98.4174 178.546C98.4174 178.546 96.9814 172.015 97.0574 172.329C97.1334 172.643 92.2544 172.899 92.2544 171.616Z" fill="#2F2E41"/>
<path d="M89.1729 159.811C89.1729 159.811 96.363 167.767 96.6198 168.537C96.8766 169.307 100.728 168.537 100.728 168.537L102.269 163.404L100.985 161.607L93.7951 155.705L89.1729 159.811Z" fill="#FBBEBE"/>
<path d="M99.4445 165.714L95.7211 169.216C95.7211 169.216 100.472 176.492 100.472 177.262C100.472 178.032 100.728 184.448 103.296 183.422C105.864 182.395 106.121 172.13 106.121 172.13C106.121 172.13 105.864 161.607 104.324 160.838C102.783 160.068 99.4059 160.311 99.4059 160.311C99.4059 160.311 101.499 165.457 99.4445 165.714Z" fill="#2F2E41"/>
<path d="M78.1309 88.2094C78.1309 88.2094 76.8469 92.3156 76.5901 93.3421C76.3333 94.3687 74.7926 97.1917 74.7926 101.555C74.7926 105.917 75.3062 111.05 74.7926 111.563C74.279 112.077 66.0617 140.82 69.6568 143.9C73.2519 146.979 85.0642 157.245 85.8346 158.528C86.605 159.811 86.8617 162.891 88.4025 162.378C89.9432 161.864 95.8494 156.731 96.1062 155.705C96.363 154.678 92.7679 152.882 92.7679 152.882C92.7679 152.882 85.5778 142.36 83.7803 142.616C81.9827 142.873 82.2395 141.333 82.4963 140.563C82.7531 139.793 83.2667 139.28 82.4963 139.28C81.7259 139.28 82.2395 137.227 82.4963 136.201C82.7531 135.174 88.6593 121.316 88.6593 121.316L104.323 114.386C104.323 114.386 103.553 95.6518 97.9037 90.5191L96.6198 87.4395C96.6198 87.4395 82.2395 86.4129 78.1309 88.2094Z" fill="#2F2E41"/>
<path d="M84.5507 47.6606C84.5507 47.6606 85.8346 56.6429 82.7531 57.1562C79.6717 57.6695 77.1038 57.4129 77.1038 57.6695C77.1038 57.9261 84.8075 65.8819 84.8075 65.8819L91.9976 65.3686L98.4173 58.4394C98.4173 58.4394 92.5112 57.4129 92.5112 53.8199C92.5112 50.227 92.2544 47.6606 92.2544 47.6606H84.5507Z" fill="#FBBEBE"/>
<path opacity="0.1" d="M84.5507 47.6606C84.5507 47.6606 85.8346 56.6429 82.7531 57.1562C79.6717 57.6695 77.1038 57.4129 77.1038 57.6695C77.1038 57.9261 84.8075 65.8819 84.8075 65.8819L91.9976 65.3686L98.4173 58.4394C98.4173 58.4394 92.5112 57.4129 92.5112 53.8199C92.5112 50.227 92.2544 47.6606 92.2544 47.6606H84.5507Z" fill="black"/>
<ellipse cx="88.5309" cy="43.4262" rx="7.96049" ry="7.95575" fill="#FBBEBE"/>
<path d="M81.4692 56.3862C81.4692 56.3862 71.4544 57.6694 70.684 61.0057C69.9136 64.342 75.8198 85.1296 76.5902 86.9261C77.3605 88.7225 77.1037 90.0057 77.1037 90.0057C79.4546 88.2486 82.4509 87.5936 85.321 88.2092C90.2 89.2358 97.1334 88.7225 97.1334 88.7225C97.1334 88.7225 99.4445 79.2269 99.9581 78.2004C100.472 77.1738 102.526 71.5278 102.526 69.988C102.526 68.4482 105.607 62.0322 105.607 62.0322C105.607 62.0322 104.067 57.4128 98.4173 57.6694C98.4173 57.6694 95.9531 56.5671 95.2593 57.3749C94.5655 58.1827 90.7136 61.7756 85.8346 60.2358C80.9556 58.696 81.4692 56.3862 81.4692 56.3862Z" fill="#FF6584"/>
<path d="M73.5087 60.7493H70.6841L69.1433 81.0236C69.1433 81.0236 74.7927 82.5634 75.5631 81.5369C76.3334 80.5103 73.5087 60.7493 73.5087 60.7493Z" fill="#FF6584"/>
<path d="M100.728 60.7493L105.607 62.0325C105.607 62.0325 109.202 75.1209 109.459 75.3776C109.716 75.6342 109.973 77.174 109.973 77.174C109.973 77.174 109.973 77.4307 110.486 78.2006C111 78.9705 111.77 78.4572 111.257 79.4838C110.743 80.5103 109.973 79.9971 110.486 81.0236C111 82.0502 110.743 84.8732 110.743 84.8732C110.743 84.8732 109.459 79.9971 104.837 81.2802L101.756 67.4218L100.728 60.7493Z" fill="#FF6584"/>
<path d="M94.746 41.4912H82.377L79.5767 35.0588H96.8463L94.746 41.4912Z" fill="#2F2E41"/>
<ellipse cx="80.292" cy="44.6037" rx="0.622813" ry="1.66" transform="rotate(-16.1601 80.292 44.6037)" fill="#FFB9B9"/>
<ellipse cx="96.8902" cy="44.6036" rx="1.66" ry="0.622813" transform="rotate(-73.8399 96.8902 44.6036)" fill="#FFB9B9"/>
<ellipse cx="95.3852" cy="74.0733" rx="4.62222" ry="4.61947" fill="#3F3D56"/>
<ellipse opacity="0.1" cx="95.3852" cy="74.0733" rx="4.62222" ry="4.61947" fill="black"/>
<ellipse cx="95.3851" cy="74.0734" rx="4.16382" ry="4.16134" fill="#3F3D56"/>
<path opacity="0.1" d="M95.2015 71.7209C95.2015 71.7209 94.1406 71.0462 93.128 71.7209C92.8135 71.9336 92.594 72.26 92.5157 72.6313C92.3783 73.2343 92.5247 73.867 92.9129 74.3487L95.2039 77.2407C95.3642 77.4463 95.6279 77.5424 95.8829 77.4881L95.8979 77.4846C96.0809 77.4396 96.2371 77.321 96.3296 77.157L97.9229 74.3607C98.2176 73.8515 98.3385 73.2602 98.2671 72.6762C98.2334 72.0144 97.7728 71.4515 97.1304 71.2872C97.1304 71.2872 96.2142 70.9016 95.2015 71.7209Z" fill="black"/>
<path d="M95.2124 71.8837C95.2124 71.8837 94.2172 71.2508 93.2672 71.8837C92.9723 72.0832 92.7663 72.3894 92.6929 72.7377C92.564 73.3034 92.7013 73.8969 93.0655 74.3487L95.2146 77.0617C95.3649 77.2546 95.6123 77.3447 95.8516 77.2937L95.8656 77.2905C96.0373 77.2483 96.1838 77.137 96.2706 76.9831L97.7652 74.3601C98.0417 73.8824 98.155 73.3277 98.0881 72.7799C98.0565 72.1591 97.6244 71.631 97.0218 71.4769C97.0218 71.4769 96.1623 71.1152 95.2124 71.8837Z" fill="#FF8A00"/>
<path opacity="0.1" d="M95.251 72.9692C94.9602 72.7931 94.5955 72.7931 94.3047 72.9692C94.1612 73.0663 94.061 73.2152 94.0252 73.3847C93.9625 73.6599 94.0293 73.9487 94.2065 74.1685C94.2065 74.1685 95.4461 75.6272 95.562 75.6013L95.5689 75.5997C95.6524 75.5797 96.493 74.174 96.493 74.174C96.6276 73.9416 96.6827 73.6717 96.6501 73.4052C96.6348 73.1032 96.4245 72.8462 96.1314 72.7712C95.8236 72.6747 95.4878 72.7503 95.251 72.9692Z" fill="black"/>
<ellipse cx="91.2765" cy="76.6397" rx="4.62222" ry="4.61947" fill="#3F3D56"/>
<ellipse opacity="0.1" cx="91.2765" cy="76.6397" rx="4.62222" ry="4.61947" fill="black"/>
<ellipse cx="91.2765" cy="76.6399" rx="4.16382" ry="4.16134" fill="#3F3D56"/>
<path opacity="0.1" d="M91.0929 74.2873C91.0929 74.2873 90.032 73.6126 89.0193 74.2873C88.7049 74.5 88.4854 74.8264 88.4071 75.1977C88.2697 75.8007 88.416 76.4334 88.8043 76.9151L91.0952 79.8072C91.2555 80.0127 91.5192 80.1088 91.7743 80.0545L91.7893 80.051C91.9722 80.006 92.1285 79.8874 92.221 79.7234L93.8142 76.9271C94.109 76.4179 94.2298 75.8266 94.1584 75.2427C94.1248 74.5808 93.6641 74.0179 93.0218 73.8536C93.0218 73.8536 92.1056 73.468 91.0929 74.2873Z" fill="black"/>
<path d="M91.1037 74.4501C91.1037 74.4501 90.1085 73.8172 89.1586 74.4501C88.8636 74.6496 88.6577 74.9558 88.5842 75.3041C88.4554 75.8698 88.5927 76.4634 88.9569 76.9152L91.1059 79.6281C91.2563 79.821 91.5036 79.9111 91.7429 79.8601L91.757 79.8569C91.9286 79.8147 92.0752 79.7034 92.162 79.5496L93.6565 76.9265C93.933 76.4488 94.0464 75.8941 93.9794 75.3463C93.9478 74.7255 93.5157 74.1974 92.9132 74.0433C92.9132 74.0433 92.0537 73.6816 91.1037 74.4501Z" fill="#FF8A00"/>
<path opacity="0.1" d="M91.1424 75.5354C90.8516 75.3593 90.4869 75.3593 90.196 75.5354C90.0525 75.6324 89.9523 75.7814 89.9166 75.9508C89.8539 76.2261 89.9207 76.5148 90.0979 76.7347C90.0979 76.7347 91.3375 78.1934 91.4534 78.1675L91.4602 78.1659C91.5437 78.1458 92.3844 76.7402 92.3844 76.7402C92.5189 76.5078 92.5741 76.2379 92.5415 75.9714C92.5261 75.6693 92.3159 75.4124 92.0227 75.3374C91.715 75.2409 91.3791 75.3164 91.1424 75.5354Z" fill="black"/>
<path d="M87.7519 65.0907C87.6393 64.9052 87.2461 64.91 87.2461 64.91C86.8881 65.4416 86.0275 64.8769 86.0275 64.8769C85.3883 65.1627 84.9983 64.2519 84.9983 64.2519C84.1382 64.1234 84.2711 63.2206 84.2711 63.2206C83.8432 63.1348 83.9632 62.3616 83.9632 62.3616C83.9632 62.3616 84.2007 62.167 84.0838 62.0246C84.0141 61.858 83.9892 61.6761 84.0114 61.497C81.3872 60.6987 78.5585 61.8125 77.1844 64.1853C75.8103 66.558 76.2529 69.5641 78.2528 71.4406C80.2527 73.3171 83.2825 73.5693 85.5654 72.0492C87.8482 70.5292 88.7823 67.6376 87.8198 65.0704C87.7895 65.1046 87.766 65.114 87.7519 65.0907Z" fill="#3F3D56"/>
<path opacity="0.1" d="M87.7519 65.0907C87.6393 64.9052 87.2461 64.91 87.2461 64.91C86.8881 65.4416 86.0275 64.8769 86.0275 64.8769C85.3883 65.1627 84.9983 64.2519 84.9983 64.2519C84.1382 64.1234 84.2711 63.2206 84.2711 63.2206C83.8432 63.1348 83.9632 62.3616 83.9632 62.3616C83.9632 62.3616 84.2007 62.167 84.0838 62.0246C84.0141 61.858 83.9892 61.6761 84.0114 61.497C81.3872 60.6987 78.5585 61.8125 77.1844 64.1853C75.8103 66.558 76.2529 69.5641 78.2528 71.4406C80.2527 73.3171 83.2825 73.5693 85.5654 72.0492C87.8482 70.5292 88.7823 67.6376 87.8198 65.0704C87.7895 65.1046 87.766 65.114 87.7519 65.0907Z" fill="black"/>
<path d="M87.4018 65.0673C87.2947 64.8908 86.9208 64.8954 86.9208 64.8954C86.5803 65.401 85.7618 64.8639 85.7618 64.8639C85.1539 65.1357 84.783 64.2696 84.783 64.2696C83.965 64.1473 84.0914 63.2887 84.0914 63.2887C83.6844 63.2071 83.7986 62.4718 83.7986 62.4718C83.7986 62.4718 84.0244 62.2867 83.9133 62.1513C83.847 61.9928 83.8232 61.8199 83.8444 61.6495C81.3486 60.8902 78.6584 61.9496 77.3516 64.2062C76.0447 66.4628 76.4657 69.3217 78.3677 71.1064C80.2697 72.891 83.1512 73.1308 85.3223 71.6852C87.4934 70.2395 88.3818 67.4895 87.4664 65.048C87.4376 65.0805 87.4152 65.0894 87.4018 65.0673Z" fill="#3F3D56"/>
<path d="M81.5356 64.7253C81.5356 64.7253 80.567 64.1093 79.6424 64.7253C79.3553 64.9195 79.1548 65.2175 79.0833 65.5565C78.9579 66.1071 79.0915 66.6848 79.446 67.1246L81.5377 69.7652C81.6841 69.9529 81.9249 70.0406 82.1577 69.991L82.1714 69.9878C82.3385 69.9467 82.4811 69.8385 82.5656 69.6887L84.0203 67.1356C84.2894 66.6707 84.3997 66.1308 84.3345 65.5976C84.3038 64.9934 83.8832 64.4794 83.2967 64.3293C83.2967 64.3293 82.4602 63.9773 81.5356 64.7253Z" fill="#FF8A00"/>
<path opacity="0.1" d="M81.5356 64.7253C81.5356 64.7253 80.567 64.1093 79.6424 64.7253C79.3553 64.9195 79.1548 65.2175 79.0833 65.5565C78.9579 66.1071 79.0915 66.6848 79.446 67.1246L81.5377 69.7652C81.6841 69.9529 81.9249 70.0406 82.1577 69.991L82.1714 69.9878C82.3385 69.9467 82.4811 69.8385 82.5656 69.6887L84.0203 67.1356C84.2894 66.6707 84.3997 66.1308 84.3345 65.5976C84.3038 64.9934 83.8832 64.4794 83.2967 64.3293C83.2967 64.3293 82.4602 63.9773 81.5356 64.7253Z" fill="black"/>
<path d="M81.5454 64.8739C81.5454 64.8739 80.6368 64.296 79.7694 64.8739C79.5001 65.0561 79.3121 65.3356 79.245 65.6536C79.1274 66.1701 79.2527 66.7121 79.5853 67.1246L81.5474 69.6016C81.6847 69.7777 81.9106 69.8599 82.129 69.8134L82.1419 69.8105C82.2986 69.7719 82.4324 69.6704 82.5116 69.5299L83.8762 67.1349C84.1287 66.6988 84.2322 66.1923 84.171 65.6922C84.1422 65.1253 83.7477 64.6432 83.1975 64.5024C83.1975 64.5024 82.4128 64.1722 81.5454 64.8739Z" fill="#FF8A00"/>
<path opacity="0.1" d="M81.5808 65.8649C81.3152 65.7041 80.9823 65.7041 80.7167 65.8649C80.5857 65.9535 80.4942 66.0895 80.4616 66.2442C80.4044 66.4955 80.4653 66.7592 80.6271 66.9599C80.6271 66.9599 81.7589 68.2918 81.8647 68.2681L81.871 68.2667C82.1747 67.8477 82.4564 67.4132 82.7148 66.9649C82.8376 66.7527 82.888 66.5063 82.8582 66.263C82.8442 65.9872 82.6522 65.7526 82.3846 65.6842C82.1036 65.596 81.7969 65.665 81.5808 65.8649Z" fill="black"/>
<path opacity="0.1" d="M78.8197 67.9697L78.9435 68.1761L79.1913 68.5887L79.274 68.8777L79.1086 69.1254L79.3153 69.6207L79.3977 69.9096L79.2326 70.0749L79.5631 70.3226" fill="black"/>
<path opacity="0.1" d="M84.8909 66.1536V66.4839L84.6845 67.0205L84.5604 67.3092L84.7669 67.6808L84.8496 67.9285L85.1801 68.0522L85.3038 68.2588V68.7541" fill="black"/>
<path opacity="0.1" d="M86.9973 66.4836L86.6669 66.69C86.6669 66.69 86.5017 66.7726 86.5017 66.8139V67.1441" fill="black"/>
<path opacity="0.1" d="M85.5103 65.3279L85.593 65.7406L85.5103 66.0295" fill="black"/>
<path opacity="0.1" d="M85.8408 69.043L85.593 69.4143L85.3038 69.662V69.8273L85.4692 70.0336V70.2812L85.3452 70.5289" fill="black"/>
<path opacity="0.1" d="M83.4866 62.0259H83.0737L82.7432 62.3149L82.2062 62.6038L81.9584 62.8102V62.8928L81.4215 63.1815L81.2563 63.4705" fill="black"/>
<path opacity="0.1" d="M79.026 62.7275L78.6543 63.4705L78.5304 63.7595L78.2413 64.131C78.2413 64.131 78.0348 64.5025 77.9935 64.5437C77.888 64.5964 77.7772 64.6379 77.6631 64.6676L78.0761 65.0803" fill="black"/>
<path opacity="0.1" d="M77.3739 65.5757L77.2912 66.1123L77.3739 66.4426V67.0206L77.1261 68.0936L77.3739 68.3825L77.663 68.7541" fill="black"/>
<path opacity="0.1" d="M77.9935 65.8232L78.2413 65.9472L78.4064 66.4838L78.7369 66.4012L78.9021 66.6902" fill="black"/>
<path opacity="0.1" d="M82.5367 71.1892L83.1975 71.1068L83.4866 70.8179H83.8998" fill="black"/>
<path opacity="0.1" d="M78.5305 70.3225L78.7783 70.6115L79.1912 70.7352L79.4804 70.8178L79.5631 71.2718" fill="black"/>
<path opacity="0.1" d="M83.4042 68.9191L83.6933 68.7127L83.8171 68.3825L84.0649 68.3411L84.1889 67.9285" fill="black"/>
<path d="M69.9137 78.9705L69.1433 81.0236C69.1433 81.0236 68.6297 87.6961 71.7112 87.4395C74.7927 87.1829 76.5902 83.3333 76.5902 83.3333C76.5902 83.3333 74.7927 78.4572 72.7384 78.9705C70.684 79.4837 69.9137 78.9705 69.9137 78.9705Z" fill="#FF6584"/>
<path d="M72.4815 80.2537C72.4815 80.2537 70.9408 84.8732 72.7383 84.8732C74.5359 84.8732 77.8741 82.0502 78.1309 79.7404C78.3877 77.4307 83.0099 68.705 79.6717 69.4749C76.3334 70.2449 74.7926 76.6608 74.7926 76.6608L72.4815 80.2537Z" fill="#FBBEBE"/>
<path d="M109.202 80.5102L110.807 83.1896C110.807 83.1896 111.514 88.2094 107.919 88.2094C104.323 88.2094 99.1877 83.3333 99.1877 83.3333C99.1877 83.3333 96.6198 82.3067 95.079 82.5633C93.5383 82.82 85.0642 82.5633 88.6593 78.2005C92.2543 73.8377 98.4173 78.2005 98.4173 78.2005L104.837 81.2802L108.175 79.4837L109.202 80.5102Z" fill="#FBBEBE"/>
<path d="M107.02 77.0457L104.452 81.1519C104.452 81.1519 110.358 81.9219 110.872 83.205C111.385 84.4882 108.561 76.5325 108.561 76.5325L107.02 77.0457Z" fill="#FF6584"/>
</svg>
