<svg width="295" height="202" viewBox="0 0 295 202" fill="none" xmlns="http://www.w3.org/2000/svg">
<ellipse cx="61.7891" cy="184.841" rx="38.7891" ry="3" fill="#FF9100"/>
<path opacity="0.1" d="M54.0958 21.083L54.0626 20.8991L50.9163 19.2344H50.4225L50.2337 18.8728H43.7496L42.2459 19.2344H36.7081L35.2078 20.9834L35.1925 21.0906C35.0954 21.7162 32.9254 36.4258 38.6506 41.106L41.0378 42.2142H42.5815L42.2798 41.6122L43.6218 42.2142H47.9668L48.044 42.0985L50.6224 41.1341L50.6888 41.0575C50.9214 40.7818 56.4012 34.1304 54.0958 21.083Z" fill="#FF9100"/>
<rect x="43.7496" y="35.7031" width="2.55589" height="6.63861" fill="#E6E6E6"/>
<rect x="42.5995" y="50.8953" width="4.60059" height="127.665" fill="#3F3D56"/>
<rect x="41.4493" y="48.7251" width="6.90089" height="4.34062" fill="#3F3D56"/>
<path d="M38.8936 40.8098L43.2384 45.4058L41.4494 48.7251L45.0275 49.4911L48.3503 48.7251L46.3055 45.1506L50.3949 40.8098H38.8936Z" fill="#3F3D56"/>
<path d="M35.5707 21.1493L33.526 19.1067L35.0595 17.5747H54.4843L56.0178 19.362L53.7175 21.1493C53.7175 21.1493 41.4492 20.6387 35.5707 21.1493Z" fill="#3F3D56"/>
<path fill-rule="evenodd" clip-rule="evenodd" d="M54.0626 20.899L54.0958 21.0829C56.4012 34.1303 50.9214 40.7817 50.6888 41.0574L50.6224 41.134L47.9668 42.1273V40.6898L48.0358 40.5902C51.2511 36.0019 49.416 23.1307 49.1323 21.2948L45.0173 19.7679L40.3809 21.2616C39.2589 23.8149 41.0174 36.0376 41.8173 40.6897L42.5815 42.2141L43.0467 43.146L41.0378 42.2141L38.6506 41.1059C32.9254 36.4257 35.0954 21.7161 35.1925 21.0905L35.2078 20.9833L36.7081 19.2343L36.8947 19.0172L41.4161 17.9551L49.4798 18.4734L50.9163 19.2343L54.0626 20.899ZM48.7336 41.0242L50.1598 40.488C50.745 39.7323 55.4019 33.2341 53.3725 21.3995L49.2754 19.2343L49.2652 19.2292L45.0378 18.956L41.4825 18.7262L39.3228 19.2343L37.3139 19.7066L35.9337 21.3152C35.7471 22.6608 33.9989 36.2419 39.0979 40.4829L41.3854 41.5374L41.0812 40.9297L41.071 40.8736C40.9509 40.174 38.1318 23.7026 39.7752 20.7586L39.8493 20.6284L44.1738 19.2343L45.0378 18.956L45.7866 19.2343L49.8198 20.7305L49.8556 20.9501C49.9553 21.5527 52.2607 35.67 48.7336 40.9272V41.0242Z" fill="#3F3D56"/>
<ellipse cx="45.0275" cy="17.5746" rx="6.90089" ry="3.57463" fill="#3F3D56"/>
<path d="M41.4493 172.05L37.3599 185.072C37.3599 185.072 43.7496 188.646 52.4396 185.072L48.3502 172.05H41.4493Z" fill="#3F3D56"/>
<ellipse cx="45.0275" cy="34.4264" rx="2.04471" ry="2.04265" fill="#FF9100"/>
<path d="M120.458 109.807C121.538 113.795 125.237 116.265 125.237 116.265C125.237 116.265 127.185 112.269 126.105 108.281C125.025 104.292 121.326 101.822 121.326 101.822C121.326 101.822 119.378 105.818 120.458 109.807Z" fill="#FF9100"/>
<path d="M122.045 108.95C125.008 111.832 125.37 116.262 125.37 116.262C125.37 116.262 120.927 116.02 117.964 113.138C115 110.256 114.638 105.825 114.638 105.825C114.638 105.825 119.081 106.068 122.045 108.95Z" fill="#E6E6E6"/>
<path d="M268.352 109.017L164.985 138.297L259.294 85.2117C254.994 77.3428 249.597 70.1244 243.263 63.7731L151.763 114.081L228.365 51.5939C217.378 44.3334 204.984 39.4658 191.989 37.3082L149.559 108.076L177.661 36.0381C177.243 36.0326 176.824 36.0264 176.405 36.0264C124.291 36.0264 82.0441 78.2304 82.0441 130.292C82.0167 147.511 86.7333 164.406 95.6773 179.126H257.132C269.845 158.099 273.869 132.955 268.352 109.017Z" fill="#F2F2F2"/>
<path d="M260.239 170.323C260.239 162.282 256.154 155.763 251.116 155.763C247.949 155.763 245.16 158.339 243.524 162.249C242.971 162.02 242.379 161.901 241.78 161.9C240.255 161.9 238.845 162.68 237.695 164.002C236.221 159.126 233.094 155.763 229.474 155.763C226.09 155.763 223.139 158.705 221.564 163.073C220.689 162.335 219.586 161.921 218.442 161.9C214.575 161.9 211.44 166.903 211.44 173.074C211.424 175.131 211.798 177.173 212.543 179.091H258.399C259.554 176.652 260.239 173.616 260.239 170.323Z" fill="#FF9100"/>
<path d="M167.99 72.4515V72.4515C167.99 52.9976 183.777 37.2271 203.25 37.2271" stroke="#3F3D56" stroke-width="2"/>
<path d="M180.82 77.0619C177.995 87.4918 168.321 93.9513 168.321 93.9513C168.321 93.9513 163.227 83.5006 166.051 73.0707C168.875 62.6409 178.549 56.1814 178.549 56.1814C178.549 56.1814 183.644 66.6321 180.82 77.0619Z" fill="#FF9100"/>
<path d="M155.126 77.0619C157.951 87.4918 167.624 93.9513 167.624 93.9513C167.624 93.9513 172.719 83.5006 169.895 73.0707C167.071 62.6409 157.397 56.1814 157.397 56.1814C157.397 56.1814 152.302 66.6321 155.126 77.0619Z" fill="#FF9100"/>
<path d="M159.276 74.8203C167.026 82.357 167.973 93.9427 167.973 93.9427C167.973 93.9427 156.354 93.3089 148.604 85.7722C140.854 78.2355 139.908 66.6499 139.908 66.6499C139.908 66.6499 151.526 67.2836 159.276 74.8203Z" fill="#3F3D56"/>
<path d="M176.669 74.8203C168.92 82.357 167.973 93.9427 167.973 93.9427C167.973 93.9427 179.591 93.3089 187.341 85.7722C195.091 78.2355 196.038 66.6499 196.038 66.6499C196.038 66.6499 184.419 67.2836 176.669 74.8203Z" fill="#3F3D56"/>
<path d="M197.539 44.7613C198.791 40.1387 203.078 37.2759 203.078 37.2759C203.078 37.2759 205.336 41.9076 204.085 46.5302C202.833 51.1527 198.545 54.0156 198.545 54.0156C198.545 54.0156 196.287 49.3838 197.539 44.7613Z" fill="#FF9100"/>
<path d="M208.927 44.7613C207.675 40.1387 203.387 37.2759 203.387 37.2759C203.387 37.2759 201.129 41.9076 202.381 46.5302C203.633 51.1527 207.92 54.0156 207.92 54.0156C207.92 54.0156 210.178 49.3838 208.927 44.7613Z" fill="#FF9100"/>
<path d="M207.087 45.7549C203.652 42.4146 203.233 37.2798 203.233 37.2798C203.233 37.2798 208.382 37.5607 211.817 40.9009C215.252 44.2412 215.671 49.376 215.671 49.376C215.671 49.376 210.522 49.0951 207.087 45.7549Z" fill="#3F3D56"/>
<path d="M199.379 45.7549C202.813 42.4146 203.233 37.2798 203.233 37.2798C203.233 37.2798 198.083 37.5607 194.649 40.9009C191.214 44.2412 190.794 49.376 190.794 49.376C190.794 49.376 195.944 49.0951 199.379 45.7549Z" fill="#3F3D56"/>
<path d="M240.914 139.898H236.707V116.616C236.703 115.292 235.629 114.219 234.303 114.215H227.091V93.7227C227.087 92.3979 226.013 91.3249 224.687 91.321H112.496C111.17 91.3249 110.096 92.3979 110.092 93.7227V114.215H102.88C101.553 114.219 100.479 115.292 100.476 116.616V139.898H96.2683C94.9422 139.902 93.8681 140.975 93.8643 142.3V176.724C93.8681 178.049 94.9422 179.122 96.2683 179.126H240.914C242.241 179.122 243.315 178.049 243.319 176.724V142.3C243.315 140.975 242.241 139.902 240.914 139.898Z" fill="#3F3D56"/>
<path d="M219.892 132.62C217.683 136.113 218.365 140.506 218.365 140.506C218.365 140.506 222.629 139.235 224.839 135.742C227.048 132.249 226.366 127.857 226.366 127.857C226.366 127.857 222.102 129.127 219.892 132.62Z" fill="#FF9100"/>
<path d="M221.598 133.208C221.479 137.338 218.458 140.602 218.458 140.602C218.458 140.602 215.631 137.169 215.75 133.039C215.869 128.909 218.89 125.646 218.89 125.646C218.89 125.646 221.717 129.078 221.598 133.208Z" fill="#E6E6E6"/>
<rect x="100.475" y="139.898" width="136.232" height="2.40167" fill="#E6E6E6"/>
<rect x="110.092" y="114.281" width="116.999" height="2.40167" fill="#E6E6E6"/>
<ellipse cx="203.25" cy="55.8401" rx="2.40409" ry="2.40167" fill="#FF9100"/>
<path d="M126.207 111.672L189.519 93.7083L198.954 126.896L194.381 128.193L197.868 140.458L182.103 131.677L135.642 144.859L126.207 111.672Z" fill="#FF9100"/>
<path d="M164.6 126.387L163.197 125.697C158.195 123.184 154.905 121.566 154.068 118.624C153.727 117.499 153.856 116.283 154.426 115.255C154.996 114.226 155.959 113.472 157.095 113.163C158.435 112.791 159.872 113.026 161.023 113.806C161.593 112.537 162.691 111.583 164.028 111.196C165.156 110.862 166.372 110.998 167.398 111.574C168.424 112.15 169.173 113.116 169.475 114.252C170.312 117.194 168.364 120.299 165.431 125.063L164.6 126.387Z" fill="white"/>
<path d="M52.236 93.5363C52.236 93.5363 50.6116 98.4045 51.5141 99.4864C52.4165 100.568 46.0995 96.2409 46.0995 96.2409L49.5287 92.2742L52.236 93.5363Z" fill="#A0616A"/>
<ellipse cx="48.5316" cy="85.433" rx="8.1035" ry="8.09533" fill="#2F2E41"/>
<path d="M80.031 148.349L75.8798 151.594L73.5334 147.808L77.6846 144.923L80.031 148.349Z" fill="#A0616A"/>
<path d="M74.1651 172.78L75.248 178.009L78.3162 182.156C78.3162 182.156 86.6186 184.68 81.0235 185.942C75.4285 187.204 74.1651 185.041 74.1651 185.041L70.1944 181.615V186.303H67.6676L67.1261 179.631C67.1261 179.631 66.7651 177.648 68.3895 175.484L68.7505 172.239L74.1651 172.78Z" fill="#2F2E41"/>
<path d="M53.2286 108.051L54.6725 116.345C54.6725 116.345 70.0139 114.722 71.0968 117.787C72.1797 120.852 72.5407 121.754 72.5407 121.754L69.4724 122.836L68.0285 120.131C67.1397 119.817 66.1604 119.882 65.3212 120.311C63.8773 121.033 51.2433 122.836 50.3409 120.492C49.4384 118.148 46.9116 109.493 46.9116 109.493L50.7018 106.428L53.2286 108.051Z" fill="#A0616A"/>
<path opacity="0.1" d="M53.2286 108.051L54.6725 116.345C54.6725 116.345 70.0139 114.722 71.0968 117.787C72.1797 120.852 72.5407 121.754 72.5407 121.754L69.4724 122.836L68.0285 120.131C67.1397 119.817 66.1604 119.882 65.3212 120.311C63.8773 121.033 51.2433 122.836 50.3409 120.492C49.4384 118.148 46.9116 109.493 46.9116 109.493L50.7018 106.428L53.2286 108.051Z" fill="black"/>
<path d="M61.7115 132.031L62.975 136.359L66.2237 152.947C66.2237 152.947 66.5847 165.207 67.1261 166.65C67.6676 168.092 67.6676 168.272 67.1261 168.813C66.5847 169.354 65.5018 171.157 67.1261 172.239C68.7505 173.321 74.5261 174.583 74.7066 173.321C74.887 172.059 74.8871 170.075 74.7066 169.174C74.5261 168.272 75.248 154.209 75.248 154.209L73.0822 132.752L65.6823 129.327L61.7115 132.031Z" fill="#2F2E41"/>
<path opacity="0.1" d="M61.7115 132.031L62.975 136.359L66.2237 152.947C66.2237 152.947 66.5847 165.207 67.1261 166.65C67.6676 168.092 67.6676 168.272 67.1261 168.813C66.5847 169.354 65.5018 171.157 67.1261 172.239C68.7505 173.321 74.5261 174.583 74.7066 173.321C74.887 172.059 74.8871 170.075 74.7066 169.174C74.5261 168.272 75.248 154.209 75.248 154.209L73.0822 132.752L65.6823 129.327L61.7115 132.031Z" fill="black"/>
<path d="M69.4725 115.083L73.4432 122.655C73.4432 122.655 96.1845 132.752 94.1991 136.899C92.2137 141.046 81.2041 148.799 81.2041 148.799C81.2041 148.799 80.6626 151.865 79.0382 150.963C77.4139 150.062 73.4432 145.374 73.8041 144.833C74.1651 144.292 75.4285 143.03 75.97 143.21C76.5114 143.39 82.8285 138.522 82.8285 138.522L71.9993 135.818C71.9993 135.818 59.0043 135.457 58.2823 129.327C57.5604 123.196 58.2823 122.114 58.2823 122.114L57.3799 120.131L64.7798 115.623L69.4725 115.083Z" fill="#2F2E41"/>
<path d="M75.0676 145.013L71.2774 148.439C71.2774 148.439 68.0286 146.997 66.0433 147.537C64.0579 148.078 60.6287 148.439 60.6287 148.439L61.1701 151.504L65.775 150.655L62.0726 155.831C62.0726 155.831 62.0726 163.945 64.4189 163.945C66.7652 163.945 66.0433 159.077 66.0433 159.077L73.2627 153.487C73.2627 153.487 76.8724 152.045 77.2334 152.045C77.5944 152.045 75.0676 145.013 75.0676 145.013Z" fill="#2F2E41"/>
<ellipse cx="51.5141" cy="88.8484" rx="6.13654" ry="6.13035" fill="#A0616A"/>
<path d="M45.4678 93.6264C45.4678 93.6264 48.3556 92.9052 49.258 93.6264C50.1604 94.3477 50.3409 95.9704 51.6043 96.1507C52.8677 96.331 53.9507 96.331 54.1311 96.5113C54.3116 96.6916 58.4628 101.74 58.4628 101.74C58.4628 101.74 60.9896 103.183 61.5311 105.166C62.0725 107.149 67.4871 113.821 68.2091 114.542C68.931 115.263 63.5164 118.869 61.7116 120.131C59.9067 121.393 54.6726 121.934 53.0482 119.049C51.4238 116.164 42.58 97.4128 45.4678 93.6264Z" fill="#575A89"/>
<path d="M52.3263 105.346L53.7702 113.64C53.7702 113.64 69.1115 112.017 70.1944 115.083C71.2774 118.148 71.6383 119.049 71.6383 119.049L68.5701 120.131L67.1262 117.427C66.2373 117.112 65.2581 117.177 64.4189 117.607C62.975 118.328 50.3409 120.131 49.4385 117.787C48.5361 115.443 46.0093 106.789 46.0093 106.789L49.7995 103.723L52.3263 105.346Z" fill="#A0616A"/>
<path d="M48.8771 94.385C48.8771 94.385 53.2286 103.543 52.8676 106.067C52.5067 108.592 51.2433 106.789 51.2433 106.789C51.2433 106.789 49.6189 104.264 48.8969 105.707C48.175 107.149 47.2725 109.133 46.5506 108.952C45.8287 108.772 41.858 95.4294 44.0238 94.1673C46.1897 92.9052 48.8771 94.385 48.8771 94.385Z" fill="#575A89"/>
<ellipse cx="39.7529" cy="74.774" rx="8.1035" ry="8.09533" fill="#2F2E41"/>
<path d="M32.7632 81.4775C34.8914 83.0142 37.633 83.4254 40.1191 82.581C42.6052 81.7365 44.5277 79.741 45.2771 77.2268C44.8961 80.2543 42.8435 82.8105 39.9678 83.8389C37.0922 84.8673 33.882 84.1931 31.6642 82.095C29.4465 79.997 28.598 76.8314 29.4694 73.907C29.0996 76.8422 30.3626 79.7452 32.7632 81.4775Z" fill="#2F2E41"/>
<ellipse cx="46.3707" cy="86.7823" rx="5.94257" ry="5.93658" fill="#2F2E41"/>
<ellipse cx="51.3679" cy="84.556" rx="5.26727" ry="4.11513" fill="#2F2E41"/>
<ellipse cx="51.6043" cy="89.4793" rx="1.17316" ry="2.0735" fill="#A0616A"/>
<path d="M67.7081 120.052C67.7081 120.052 70.9033 118.221 71.4964 118.68C72.0896 119.14 72.3531 120.576 72.3531 120.576L68.6603 122.024L67.5774 120.041L67.7081 120.052Z" fill="#2F2E41"/>
</svg>
