<svg width="295" height="202" viewBox="0 0 295 202" fill="none" xmlns="http://www.w3.org/2000/svg">
<path d="M134.761 53.5536C125.424 53.5608 116.152 52.019 107.33 48.9921C95.502 44.941 85.8125 39.3533 78.5304 32.3841C64.7557 19.2011 53.4624 17.2143 46.4156 17.8685C38.7875 18.577 34.3474 22.4465 34.3035 22.4855L34 22.1504C34.0448 22.1105 38.5765 18.1532 46.3437 17.4231C50.8986 16.9952 55.6618 17.7407 60.5015 19.6396C66.5368 22.0076 72.7088 26.1866 78.8462 32.0603C86.0803 38.9837 95.7135 44.5372 107.478 48.5666C129.076 55.9636 153.417 54.1727 174.26 43.6529C181.161 40.1696 187.982 37.792 194.533 36.5862C202.793 35.0653 210.627 35.4183 217.819 37.6347C233.622 42.5052 244.417 42.2469 250.689 41.1731C257.457 40.0143 260.528 37.6952 260.558 37.6719L260.837 38.0272C260.71 38.1252 257.645 40.4389 250.766 41.6167C244.444 42.6993 233.573 42.9616 217.684 38.0645C201.596 33.1069 185.302 38.5849 174.466 44.0539C164.164 49.2811 152.915 52.4249 141.374 53.302C139.162 53.4697 136.957 53.5536 134.761 53.5536Z" fill="#3F3D56"/>
<ellipse cx="133.844" cy="54.5778" rx="4.60538" ry="4.5622" fill="#FF9100"/>
<ellipse cx="205.193" cy="36.3449" rx="4.60538" ry="4.5622" fill="#FF9100"/>
<ellipse cx="56.8137" cy="18.5622" rx="4.60538" ry="4.5622" fill="#FF9100"/>
<path fill-rule="evenodd" clip-rule="evenodd" d="M166.87 167.136V123.056H198.562C197.043 119.78 195.975 112.016 195.975 102.956C195.975 90.937 199.533 78.9756 201.852 78.9756H208.848V167.136H201.852V126.937H173.866V167.136H166.87ZM201.784 123.056H201.852V122.903C201.847 122.914 201.842 122.925 201.837 122.936C201.819 122.977 201.802 123.017 201.784 123.056Z" fill="#3F3D56"/>
<path d="M192.797 57.1575H192.797C187.054 57.1575 182.398 62.2757 182.398 68.5893V76.6108H184.889L186.33 73.6388L185.97 76.6108H201.977L203.288 73.909L202.96 76.6108H204.763V70.3125C204.763 63.0472 199.405 57.1575 192.797 57.1575Z" fill="#2F2E41"/>
<path d="M180.882 109.566L174.497 112.254L152.311 130.121C151.495 131.114 150.995 132.325 150.874 133.6C150.715 135.655 144.011 146.407 146.405 147.83C148.799 149.254 157.419 153.523 157.897 150.677C158.376 147.83 160.93 135.655 160.93 135.655L182.318 116.681L180.882 109.566Z" fill="#2F2E41"/>
<path d="M155.822 148.305L153.109 156.211C153.109 156.211 155.982 159.215 154.545 161.745V170.441H152.311L151.672 165.856C151.672 165.856 149.127 170.383 147.842 170.441C145.147 170.563 139.81 171.512 139.65 170.089C139.491 168.666 143.692 167.279 143.692 167.279L148.161 155.104L150.076 147.672L155.822 148.305Z" fill="#2F2E41"/>
<path d="M197.482 107.51C197.482 107.51 198.918 121.425 194.768 123.955C190.618 126.484 172.263 134.549 172.263 134.549C172.263 134.549 180.084 141.822 178.488 143.561C176.891 145.301 169.709 150.044 168.751 149.095C167.793 148.147 157.099 136.762 158.376 133.125C159.653 129.489 177.37 117.63 177.37 117.63L179.445 110.198L180.084 104.19L186.788 99.9207L197.482 107.51Z" fill="#2F2E41"/>
<ellipse cx="190.169" cy="68.5226" rx="6.65405" ry="6.59167" fill="#FFB9B9"/>
<path d="M195.327 71.2222C195.327 71.2222 195.008 77.2307 199.956 79.1281C204.904 81.0255 187.665 93.3587 187.665 93.3587V79.6024C187.665 79.6024 189.9 77.2306 187.665 73.5939L195.327 71.2222Z" fill="#FFB9B9"/>
<path d="M205.941 99.4463L204.664 105.613L200.834 126.801C200.834 126.801 204.026 135.813 199.716 135.655C195.407 135.497 197.482 125.852 197.482 125.852L199.716 108.301V101.502L205.941 99.4463Z" fill="#FFB9B9"/>
<path d="M178.488 96.4421L177.051 101.976L170.507 117.63C170.507 117.63 166.038 125.062 169.709 124.903C173.38 124.745 173.38 117.63 173.38 117.63L180.882 104.981V97.8652L178.488 96.4421Z" fill="#FFB9B9"/>
<path d="M177.37 142.613L182.638 147.514C182.638 147.514 186.309 146.724 187.745 150.993C189.182 155.262 190.14 157.95 190.14 157.95L188.224 159.057L185.83 155.736C185.83 155.736 184.393 161.745 182.957 162.219C181.52 162.694 174.338 165.856 174.976 162.219L178.488 157.159C178.488 157.159 178.966 151.467 177.53 150.993C176.093 150.518 172.263 145.775 172.263 145.775L177.37 142.613Z" fill="#2F2E41"/>
<path d="M197.735 112.412C197.735 112.412 182.731 107.036 181.773 107.51C181.06 107.822 180.301 108.018 179.525 108.088L179.539 105.929C179.539 105.929 184.487 104.19 187.2 105.297C189.914 106.404 198.214 111.305 198.214 111.305L197.735 112.412Z" fill="#3F3D56"/>
<path d="M188.623 90.1963C188.623 90.1963 192.933 85.2947 194.21 82.2904C195.018 80.4692 196.5 79.0247 198.352 78.2551C198.352 78.2551 207.936 80.393 207.777 84.1879C207.617 87.9827 201.712 93.8331 201.712 93.8331C201.712 93.8331 202.51 114.863 198.2 114.547C197.27 113.448 196.614 112.148 196.285 110.752C195.806 108.538 180.962 106.166 180.962 106.166C180.962 106.166 179.685 108.38 179.525 107.431C179.366 106.483 180.802 83.2392 180.802 83.2392L188.414 78.2551L188.623 90.1963Z" fill="#D0CDE1"/>
<path d="M206.547 82.6604L206.654 82.7199C207.349 83.106 207.779 83.8335 207.779 84.6225L207.777 96.3569C207.779 97.0025 208.068 97.6144 208.567 98.0303C209.181 98.5484 209.752 99.295 208.575 99.6835C206.66 100.316 199.158 103.478 198.998 102.371C198.838 101.265 198.519 99.9997 198.998 99.9997C199.373 99.9997 201.607 88.6614 203.401 83.8135C203.623 83.2128 204.1 82.7388 204.705 82.5169C205.311 82.295 205.984 82.3474 206.547 82.6604Z" fill="#D0CDE1"/>
<path d="M182.957 82.6858L180.722 83.3183L178.168 94.2284C178.168 94.2284 175.136 94.8609 176.093 95.9677C177.051 97.0745 181.041 99.9207 181.041 99.9207L182.957 82.6858Z" fill="#D0CDE1"/>
<path d="M195.753 60.3066C194.739 58.9574 193.148 58.1532 191.45 58.1313H191.246C187.309 58.1313 184.119 61.6598 184.119 66.0123V66.0123H185.437L185.65 64.4062L185.963 66.0123H193.785L194.441 64.6535L194.277 66.0123H195.816C196.534 69.5452 195.502 73.078 192.72 76.6109H195.342L196.652 73.8933L196.325 76.6109H201.322L202.305 70.3604C202.305 65.6794 199.559 61.71 195.753 60.3066Z" fill="#2F2E41"/>
<path fill-rule="evenodd" clip-rule="evenodd" d="M64.9306 111.017C64.9306 121.034 63.7497 129.619 62.0705 133.24H97.1111V181.978H89.3754V137.532H58.4326V181.978H50.6969V84.5024H58.4326C60.996 84.5024 64.9306 97.7278 64.9306 111.017ZM58.4487 133.108C58.4433 133.096 58.438 133.084 58.4326 133.072V133.24H58.5078C58.488 133.197 58.4683 133.153 58.4487 133.108Z" fill="#3F3D56"/>
<path d="M94.3137 115.458C94.3137 115.458 103.63 119.284 100.676 121.535C97.7221 123.786 91.587 118.834 91.8142 118.159C92.0414 117.483 90.9053 115.908 90.9053 115.908L94.3137 115.458Z" fill="#9F616A"/>
<path d="M86.1335 85.2947L89.0874 87.9958L89.7691 95.8742L92.0414 104.203C92.0414 104.203 95.9042 112.081 95.2225 113.657C94.5409 115.233 95.9042 115.683 95.9042 115.683L90.678 117.709C90.678 117.709 84.9973 111.406 84.9973 110.055C84.9973 108.705 86.1335 85.2947 86.1335 85.2947Z" fill="#575A88"/>
<path opacity="0.1" d="M86.1335 85.2947L89.0874 87.9958L89.7691 95.8742L92.0414 104.203C92.0414 104.203 95.9042 112.081 95.2225 113.657C94.5409 115.233 95.9042 115.683 95.9042 115.683L90.678 117.709C90.678 117.709 84.9973 111.406 84.9973 110.055C84.9973 108.705 86.1335 85.2947 86.1335 85.2947Z" fill="black"/>
<path d="M114.082 166.33C114.082 166.33 112.946 171.507 112.719 171.957C112.492 172.407 117.036 173.983 117.036 173.983L122.49 170.156C122.49 170.156 120.218 165.204 120.218 164.304L114.082 166.33Z" fill="#575A88"/>
<path d="M84.3157 115.908L85.9063 117.708C85.9063 117.708 118.854 121.76 119.536 128.063C120.218 134.366 124.989 164.078 122.263 164.979C119.536 165.879 112.492 169.256 112.492 167.455C112.492 165.654 107.947 140.893 108.856 136.392C108.856 136.392 69.5459 131.439 68.637 125.812C67.7281 120.185 69.5459 117.708 69.5459 117.708L84.3157 115.908Z" fill="#2F2E41"/>
<path opacity="0.1" d="M84.3157 115.908L85.9063 117.708C85.9063 117.708 118.854 121.76 119.536 128.063C120.218 134.366 124.989 164.078 122.263 164.979C119.536 165.879 112.492 169.256 112.492 167.455C112.492 165.654 107.947 140.893 108.856 136.392C108.856 136.392 69.5459 131.439 68.637 125.812C67.7281 120.185 69.5459 117.708 69.5459 117.708L84.3157 115.908Z" fill="black"/>
<path d="M113.628 171.507C113.628 171.507 112.719 169.481 112.265 170.156C111.81 170.832 110.22 178.71 111.81 178.71C113.401 178.71 127.943 182.311 129.988 181.861C132.033 181.411 135.896 182.086 135.442 179.835C134.987 177.584 132.715 177.359 132.715 177.359C132.715 177.359 124.308 172.407 123.853 169.931C123.399 167.455 120.899 168.806 120.899 168.806V170.381C120.899 170.381 116.127 173.983 113.628 171.507Z" fill="#2F2E41"/>
<path d="M70.4548 68.1871C70.4548 68.1871 72.0454 75.8404 68.637 76.5157C65.2286 77.191 72.9543 81.693 72.9543 81.693L77.9533 84.3941L81.5889 80.7926C81.5889 80.7926 78.2941 74.1522 80.7936 69.2001C83.2931 64.2479 70.4548 68.1871 70.4548 68.1871Z" fill="#9F616A"/>
<path d="M81.5889 80.7926L77.9533 84.3941L72.9543 81.693C72.9543 81.693 65.2286 77.191 68.637 76.5157C70.8297 76.0813 70.9524 72.7589 70.7638 70.4449C70.7023 69.6873 70.5991 68.9336 70.4548 68.1871C70.4548 68.1871 83.2931 64.2479 80.7936 69.2001C80.4139 69.9648 80.1505 70.781 80.012 71.6221C79.2462 76.0723 81.5889 80.7926 81.5889 80.7926Z" fill="#9F616A"/>
<path d="M94.3136 172.857V178.034H102.948L103.63 176.009L102.721 170.606L94.3136 172.857Z" fill="#575A88"/>
<path d="M58.639 120.41C58.639 120.41 58.639 133.69 64.0924 134.141C69.5459 134.591 89.0874 137.067 89.0874 137.067C89.0874 137.067 90.2236 159.126 92.2686 166.329C94.3137 173.533 92.4958 173.983 94.3137 174.433C96.1315 174.883 103.857 173.307 103.63 171.732C103.403 170.156 102.494 130.314 102.494 130.314C102.494 130.314 104.539 121.76 77.2716 117.708L58.639 120.41Z" fill="#2F2E41"/>
<path d="M94.9953 176.459C94.9953 176.459 93.632 173.533 93.4047 174.433C93.1775 175.333 90.4508 183.212 93.1775 183.887C95.9042 184.562 104.539 188.164 110.22 187.939C115.9 187.714 116.582 187.489 116.582 187.489C116.582 187.489 118.173 185.238 116.127 183.887C114.082 182.536 105.675 174.658 105.221 173.758C104.766 172.857 101.358 172.182 101.358 173.758C101.358 175.333 96.5859 178.485 94.9953 176.459Z" fill="#2F2E41"/>
<path opacity="0.1" d="M80.7936 69.2001C80.4138 69.9648 80.1504 70.781 80.012 71.6221C78.8804 72.2997 78.1237 72.1263 76.7035 72.1263C74.5971 72.1263 73.7473 69.4589 72.3862 68.0746C72.2794 66.7893 70.4548 68.1871 70.4548 68.1871C70.4548 68.1871 83.2931 64.2479 80.7936 69.2001Z" fill="black"/>
<ellipse cx="76.1355" cy="64.5857" rx="7.4985" ry="7.4282" fill="#9F616A"/>
<path d="M89.0874 87.9959C89.0874 87.9959 87.9513 96.0994 87.2696 99.0256C86.5879 101.952 85.679 115.458 85.2246 117.258C84.7701 119.059 82.0434 119.509 76.59 118.834C76.2476 118.791 75.9033 118.766 75.5583 118.758C72.1999 118.652 68.3575 119.897 64.8014 120.874C62.7564 121.436 60.8045 121.909 59.0935 121.986C56.5031 122.103 55.7441 119.257 55.8327 116.178C55.9168 113.313 56.7371 110.24 57.5029 109.155C58.8821 107.201 57.5256 89.6593 58.0346 83.8743V83.8721C58.1118 82.9897 58.2323 82.3819 58.4118 82.1433C59.7751 80.3426 68.637 75.8406 69.63 76.023C70.6207 76.2053 79.0894 81.4681 79.0894 81.4681C81.1345 81.4681 81.0686 79.2711 81.0686 79.2711C81.0686 79.2711 82.4979 81.9182 85.2246 82.5935C87.9513 83.2688 89.0874 87.9959 89.0874 87.9959Z" fill="#575A88"/>
<path d="M73.8979 117.178C73.8979 117.178 88.535 117.64 85.9709 119.362C83.4068 121.085 72.0454 122.661 71.8182 120.41C71.5909 118.159 73.8979 117.178 73.8979 117.178Z" fill="#9F616A"/>
<path opacity="0.1" d="M75.5583 118.758C75.606 119.622 73.2588 121.569 72.4998 122.886C72.0794 123.615 68.8256 122.654 64.8014 120.874C61.7133 119.5 58.7175 117.932 55.8327 116.178C55.9168 113.312 56.7371 110.24 57.5028 109.155C58.8821 107.201 57.5255 89.6593 58.0346 83.8743V83.8721C58.1559 83.811 58.282 83.7598 58.4117 83.719H61.1385C70.4548 87.9958 59.7751 106.454 59.7751 106.454C59.7751 106.454 73.8632 117.934 75.2265 118.384C75.4105 118.418 75.5472 118.572 75.5583 118.758Z" fill="black"/>
<path d="M61.1385 82.3684H58.4118C58.4118 82.3684 55.9123 83.0437 53.8672 87.5456C51.8222 92.0476 44.3237 106.004 50.9133 111.406C57.5029 116.808 71.591 123.111 72.4999 121.535C73.4088 119.96 76.5899 117.484 75.2266 117.033C73.8632 116.583 59.7751 105.103 59.7751 105.103C59.7751 105.103 70.4548 86.6453 61.1385 82.3684Z" fill="#575A88"/>
<path d="M74.9819 61.1291C74.9819 61.1291 75.311 56.6164 79.3705 58.4564C83.4301 60.2964 83.1652 55.2248 81.9384 54.3286C80.7116 53.4323 80.7505 53.2106 76.2637 53.8102C71.7768 54.4098 63.0659 55.4258 65.8825 64.3628C68.6992 73.2999 71.2501 71.0009 71.2501 71.0009C71.2501 71.0009 69.0112 62.9586 71.2797 64.4908L73.5482 66.023L74.7453 65.7718L74.9819 61.1291Z" fill="#2F2E41"/>
<path d="M242.489 126.109C242.489 122.046 212.011 118.752 174.415 118.752C136.818 118.752 106.341 122.046 106.341 126.109C106.341 127.683 110.921 129.142 118.718 130.339V180.671H122.431V130.858C134.918 132.452 153.57 133.465 174.415 133.465C195.431 133.465 214.221 132.436 226.708 130.818V180.671H230.421V130.291C238.028 129.103 242.489 127.662 242.489 126.109Z" fill="#3F3D56"/>
<ellipse cx="182.943" cy="122.886" rx="13.8609" ry="3.37646" fill="#F2F2F2"/>
<ellipse cx="182.943" cy="122.886" rx="11.3614" ry="2.76759" fill="#D0CDE1"/>
<ellipse cx="131.363" cy="125.587" rx="13.8609" ry="3.37646" fill="#F2F2F2"/>
<ellipse cx="131.363" cy="125.587" rx="11.3614" ry="2.76759" fill="#D0CDE1"/>
<ellipse cx="182.621" cy="121.614" rx="6.60786" ry="1.03356" fill="#9F616A"/>
<ellipse cx="179.099" cy="120.107" rx="2.08669" ry="1.1197" fill="#FF9100"/>
<ellipse cx="178.317" cy="120.107" rx="2.08669" ry="1.1197" fill="#FF9100"/>
<ellipse cx="187.446" cy="120.365" rx="2.08669" ry="1.1197" fill="#FF9100"/>
<ellipse cx="182.664" cy="120.107" rx="2.08669" ry="1.1197" fill="#FF9100"/>
<ellipse cx="186.229" cy="120.107" rx="2.08669" ry="1.1197" fill="#FF9100"/>
<path d="M188.924 119.418C185.153 120.685 180.922 120.685 176.23 119.418V119.243C176.228 116.506 178.394 114.248 181.154 114.11C182.272 114.054 183.393 114.056 184.511 114.114C186.993 114.257 188.93 116.296 188.924 118.759V119.418Z" fill="#3F3D56"/>
<path d="M187.073 124.164C184.286 124.443 181.477 124.443 178.69 124.164C177.321 124.031 176.276 122.891 176.274 121.528H189.489C189.487 122.891 188.442 124.031 187.073 124.164Z" fill="#3F3D56"/>
<path d="M180.838 115.714C180.226 115.967 179.538 115.967 178.925 115.714C179.538 115.461 180.226 115.461 180.838 115.714Z" fill="#D0CDE1"/>
<path d="M182.751 116.489C182.139 116.742 181.45 116.742 180.838 116.489C181.45 116.236 182.139 116.236 182.751 116.489Z" fill="#D0CDE1"/>
<path d="M182.925 115.111C182.313 115.364 181.624 115.364 181.012 115.111C181.624 114.858 182.313 114.858 182.925 115.111Z" fill="#D0CDE1"/>
<path d="M186.49 115.111C185.878 115.364 185.189 115.364 184.577 115.111C185.189 114.858 185.878 114.858 186.49 115.111Z" fill="#D0CDE1"/>
<path d="M185.533 115.886C184.921 116.139 184.233 116.139 183.62 115.886C184.233 115.634 184.921 115.634 185.533 115.886Z" fill="#D0CDE1"/>
<ellipse cx="131.267" cy="124.315" rx="6.60786" ry="1.03356" fill="#9F616A"/>
<ellipse cx="127.746" cy="122.808" rx="2.08669" ry="1.1197" fill="#FF9100"/>
<ellipse cx="126.963" cy="122.808" rx="2.08669" ry="1.1197" fill="#FF9100"/>
<ellipse cx="136.093" cy="123.066" rx="2.08669" ry="1.1197" fill="#FF9100"/>
<ellipse cx="131.311" cy="122.808" rx="2.08669" ry="1.1197" fill="#FF9100"/>
<ellipse cx="134.875" cy="122.808" rx="2.08669" ry="1.1197" fill="#FF9100"/>
<path d="M137.571 122.119C133.799 123.386 129.568 123.386 124.877 122.119V121.944C124.875 119.207 127.041 116.949 129.801 116.811C130.919 116.755 132.04 116.757 133.158 116.815C135.64 116.959 137.577 118.998 137.571 121.461V122.119Z" fill="#3F3D56"/>
<path d="M135.719 126.865C132.932 127.144 130.124 127.144 127.337 126.865C125.967 126.732 124.922 125.592 124.92 124.229H138.136C138.134 125.592 137.089 126.732 135.719 126.865Z" fill="#3F3D56"/>
<path d="M129.485 118.415C128.873 118.668 128.184 118.668 127.572 118.415C128.184 118.162 128.873 118.162 129.485 118.415Z" fill="#D0CDE1"/>
<path d="M131.398 119.19C130.786 119.443 130.097 119.443 129.485 119.19C130.097 118.938 130.786 118.938 131.398 119.19Z" fill="#D0CDE1"/>
<path d="M131.572 117.812C130.959 118.065 130.271 118.065 129.659 117.812C130.271 117.559 130.959 117.559 131.572 117.812Z" fill="#D0CDE1"/>
<path d="M135.136 117.812C134.524 118.065 133.836 118.065 133.224 117.812C133.836 117.559 134.524 117.559 135.136 117.812Z" fill="#D0CDE1"/>
<path d="M134.18 118.587C133.568 118.84 132.879 118.84 132.267 118.587C132.879 118.335 133.568 118.335 134.18 118.587Z" fill="#D0CDE1"/>
<path d="M194.867 121.971L194.899 122.668L194.94 123.573C194.94 123.573 190.747 123.807 189.903 124.691C189.883 124.71 189.865 124.731 189.849 124.753L188.169 124.389L188.165 123.569C188.165 123.569 188.188 123.556 188.233 123.532C188.244 123.527 188.257 123.52 188.269 123.513C190.325 122.516 192.579 121.989 194.867 121.971V121.971Z" fill="#FF9100"/>
<path opacity="0.1" d="M194.867 121.971L194.899 122.668C193.04 122.725 189.521 123.823 189.521 123.823L188.233 123.532C190.297 122.522 192.565 121.988 194.867 121.971V121.971Z" fill="black"/>
<path opacity="0.1" d="M188.269 123.513L189.521 123.823L189.903 124.691C189.883 124.71 189.865 124.731 189.849 124.753L188.169 124.389L188.165 123.569C188.165 123.569 188.188 123.556 188.233 123.532C188.244 123.527 188.257 123.52 188.269 123.513Z" fill="white"/>
<path d="M144.196 124.897L144.228 125.594L144.268 126.499C144.268 126.499 140.076 126.733 139.231 127.618C139.211 127.637 139.193 127.657 139.177 127.679L137.498 127.315L137.494 126.495C137.494 126.495 137.517 126.482 137.562 126.458C137.572 126.453 137.585 126.446 137.598 126.44C139.653 125.443 141.908 124.916 144.196 124.897V124.897Z" fill="#FF9100"/>
<path opacity="0.1" d="M144.196 124.897L144.228 125.594C142.368 125.651 138.85 126.749 138.85 126.749L137.562 126.458C139.626 125.448 141.894 124.915 144.196 124.897Z" fill="black"/>
<path opacity="0.1" d="M137.598 126.44L138.85 126.749L139.231 127.618C139.211 127.637 139.193 127.657 139.177 127.679L137.498 127.315L137.494 126.495C137.494 126.495 137.517 126.483 137.562 126.459C137.572 126.453 137.585 126.446 137.598 126.44Z" fill="white"/>
<path d="M220.119 101.086C219.761 100.732 219.342 100.445 218.881 100.239V91.4926C218.881 91.2791 218.706 91.106 218.491 91.106H216.305C216.089 91.106 215.914 91.2791 215.914 91.4926V100.071C214.294 100.604 213.2 102.104 213.199 103.796V122.558C213.199 123.014 213.382 123.451 213.708 123.774C214.033 124.096 214.475 124.277 214.935 124.277H219.617C220.571 124.277 221.345 123.511 221.345 122.566V104.017C221.346 102.917 220.905 101.863 220.119 101.086Z" fill="#3F3D56"/>
<rect x="213.199" y="106.546" width="8.14507" height="10.6587" fill="#FF9100"/>
<path d="M219.057 91.7036H218.881V91.4926C218.881 91.2791 218.706 91.106 218.491 91.106H216.305C216.089 91.106 215.914 91.2791 215.914 91.4926V91.7036H215.739V92.6002H215.914V97.1824H218.881V92.6002H219.057V91.7036Z" fill="#FF9100"/>
<path d="M154.902 108.678C154.686 108.222 154.516 107.9 154.457 107.789C150.801 108.683 148.361 107.928 147.977 107.794C147.788 108.146 146.614 110.395 146.139 112.552C145.711 114.498 145.959 115.802 146.879 116.428L146.906 116.448L146.912 116.452C147.928 117.114 148.896 117.701 149.79 118.196C149.911 118.262 150.025 118.324 150.131 118.381L150.143 118.387L150.151 118.397C150.274 118.55 150.388 118.71 150.493 118.876C150.691 119.15 150.811 119.471 150.84 119.806V129.468L150.779 129.47C148.447 129.517 147.003 129.908 147.003 130.244C147.003 130.612 148.734 131.023 151.218 131.023C153.702 131.023 155.433 130.612 155.433 130.244C155.433 129.913 154.014 129.524 151.721 129.471L151.659 129.47L151.717 120.532C151.718 119.927 151.86 119.331 152.132 118.789C152.178 118.697 152.228 118.609 152.28 118.525C152.321 118.458 152.365 118.393 152.411 118.331L152.419 118.319L152.431 118.313C152.546 118.25 152.668 118.183 152.797 118.111L152.812 118.102C153.659 117.629 154.571 117.073 155.524 116.451C156.374 115.896 156.671 114.773 156.404 113.115C156.15 111.533 155.447 109.829 154.902 108.678Z" fill="#D0CDE1"/>
<path d="M155.12 116.249C154.122 116.901 153.297 117.39 152.666 117.742H152.666C151.746 117.68 150.822 117.706 149.907 117.819C149.26 117.462 148.388 116.949 147.315 116.249C147.305 116.242 147.295 116.235 147.285 116.228V116.227C146.301 115.557 146.276 114.137 146.597 112.684C147.411 112.595 148.71 112.634 150.454 113.251C152.52 113.982 154.683 113.569 155.937 113.193C156.142 114.474 156.017 115.663 155.12 116.249Z" fill="#FF9100"/>
<ellipse cx="149.182" cy="111.879" rx="0.282791" ry="0.28014" fill="#FF9100"/>
<ellipse cx="148.39" cy="114.456" rx="0.282791" ry="0.28014" fill="white"/>
<ellipse cx="149.861" cy="112.551" rx="0.169675" ry="0.168084" fill="#FF9100"/>
<ellipse cx="150.539" cy="115.744" rx="0.169675" ry="0.168084" fill="white"/>
<ellipse cx="149.352" cy="115.913" rx="0.169675" ry="0.168084" fill="white"/>
<ellipse cx="152.802" cy="110.31" rx="0.169675" ry="0.168084" fill="#FF9100"/>
<path d="M168.167 99.5692C167.952 99.1135 167.781 98.7911 167.722 98.6802C164.066 99.574 161.626 98.8187 161.242 98.6851C161.054 99.037 159.879 101.287 159.405 103.443C158.976 105.389 159.225 106.693 160.144 107.32L160.172 107.339L160.177 107.343C161.193 108.005 162.161 108.592 163.056 109.087C163.176 109.153 163.29 109.215 163.396 109.272L163.408 109.278L163.416 109.288C163.539 109.442 163.653 109.601 163.758 109.767C163.956 110.041 164.076 110.362 164.106 110.697V120.359L164.044 120.361C161.712 120.408 160.268 120.799 160.268 121.135C160.268 121.504 161.999 121.914 164.483 121.914C166.967 121.914 168.698 121.504 168.698 121.135C168.698 120.804 167.279 120.415 164.986 120.362L164.924 120.361L164.982 111.423C164.983 110.818 165.125 110.222 165.397 109.68C165.443 109.589 165.493 109.5 165.545 109.416C165.586 109.349 165.63 109.284 165.676 109.222L165.684 109.21L165.697 109.204C165.811 109.142 165.933 109.074 166.062 109.002L166.078 108.994C166.924 108.52 167.836 107.965 168.789 107.343C169.64 106.787 169.936 105.664 169.669 104.006C169.415 102.424 168.712 100.72 168.167 99.5692Z" fill="#D0CDE1"/>
<path d="M168.386 107.14C167.387 107.792 166.562 108.281 165.932 108.634H165.931C165.011 108.572 164.087 108.597 163.172 108.711C162.526 108.353 161.653 107.84 160.581 107.14C160.57 107.133 160.56 107.127 160.55 107.119V107.119C159.566 106.448 159.542 105.028 159.862 103.576C160.676 103.486 161.975 103.525 163.72 104.143C165.786 104.874 167.948 104.46 169.202 104.084C169.408 105.366 169.282 106.555 168.386 107.14Z" fill="#FF9100"/>
<ellipse cx="162.447" cy="102.77" rx="0.282791" ry="0.28014" fill="#FF9100"/>
<ellipse cx="161.655" cy="105.347" rx="0.282791" ry="0.28014" fill="white"/>
<ellipse cx="163.126" cy="103.442" rx="0.169675" ry="0.168084" fill="#FF9100"/>
<ellipse cx="163.804" cy="106.636" rx="0.169675" ry="0.168084" fill="white"/>
<ellipse cx="162.617" cy="106.804" rx="0.169675" ry="0.168084" fill="white"/>
<ellipse cx="166.067" cy="101.201" rx="0.169675" ry="0.168084" fill="#FF9100"/>
</svg>
